<svg id="Capa_1" enable-background="new 0 0 512 512" height="512" viewBox="0 0 512 512" width="512" xmlns="http://www.w3.org/2000/svg"><g><path d="m437.02 74.98c-48.353-48.351-112.64-74.98-181.02-74.98s-132.667 26.629-181.02 74.98c-48.351 48.353-74.98 112.64-74.98 181.02s26.629 132.667 74.98 181.02c48.353 48.351 112.64 74.98 181.02 74.98s132.667-26.629 181.02-74.98c48.351-48.353 74.98-112.64 74.98-181.02s-26.629-132.667-74.98-181.02zm-317.514 361.02h272.988c-37.951 28.849-85.254 46-136.494 46s-98.543-17.151-136.494-46zm305.381-30h-337.774c-35.507-39.934-57.113-92.486-57.113-150 0-124.617 101.383-226 226-226s226 101.383 226 226c0 57.514-21.606 110.066-57.113 150z"/><path d="m351.277 213.871c-8.271 0-16.327.931-24.076 2.684-.957-45.301-21.608-85.223-60.596-116.479l-9.383-7.523-9.383 7.523c-38.92 31.201-59.567 71.038-60.592 116.242-7.321-1.598-14.913-2.446-22.698-2.446h-86.104v38.073c0 60.133 48.302 109.055 107.672 109.055h140.828c60.133 0 109.055-48.922 109.055-109.056v-38.073zm-94.054-82.295c28.857 26.852 42.199 59.338 39.752 96.801-16.362 9.434-30.054 22.998-39.656 39.251-9.62-16.492-23.4-30.209-39.871-39.659-2.324-37.291 11.022-69.639 39.775-96.393zm-15 199.424h-56.105c-42.828 0-77.672-35.464-77.672-79.056v-8.073h56.105c42.829 0 77.673 35.464 77.673 79.055v8.074zm163.777-79.056c0 43.592-35.464 79.056-79.055 79.056h-54.723v-8.074c0-43.591 35.464-79.055 79.055-79.055h54.723z"/></g></svg>