<svg id="Layer_1" enable-background="new 0 0 512 512" height="512" viewBox="0 0 512 512" width="512" xmlns="http://www.w3.org/2000/svg"><path d="m507.995 190.673c0 25.324-20.888 46.107-46 46.327-15.15 0-29.941-6.388-40.669-17.09-6.558-6.542-17.233-6.541-23.792.002-11.067 11.041-25.752 17.086-40.539 17.088s-29.674-6.041-40.743-17.083c-6.564-6.549-17.239-6.549-23.8-.004-11.083 11.057-25.772 16.98-40.457 17.088-14.643.108-29.771-6.057-40.825-17.083-6.564-6.549-17.239-6.549-23.8-.004-11.101 11.075-25.666 16.998-40.375 17.088-14.618.089-29.381-5.586-40.416-16.594l-.369-.369c-3.261-3.253-7.483-5.039-11.905-5.039-4.278.037-8.744 1.932-11.887 4.925-13.195 12.168-20.389 31.201-16.994 47.288 18.066 85.606 74.49 154.537 97.91 180.199 14.261 15.628 34.71 24.59 56.105 24.59h51.557c11.046 0 20 8.954 20 20s-8.954 20-20 20h-51.557c-32.611 0-63.83-13.714-85.65-37.626-25.629-28.083-87.408-103.679-107.503-198.905-6.316-29.928 4.351-62.032 27.844-83.889 10.516-10.418 24.957-16.456 39.695-16.582 15.274-.101 30.067 6.176 41.003 17.085 6.563 6.547 17.236 6.547 23.797.002 10.75-10.725 25.01-16.779 39.37-17.088 15.207-.327 30.526 5.725 41.912 17.083 6.564 6.548 17.239 6.55 23.799.004 10.979-10.953 25.619-17 40.289-17.088 14.904-.09 29.837 5.954 40.994 17.083 6.565 6.55 17.239 6.549 23.799.004 10.709-10.683 24.901-16.742 39.207-17.088 15.263-.369 30.654 5.69 42.082 17.09 3.173 3.165 7.398 4.91 11.896 4.91 3.194-.028 6.023-2.926 6.023-6.327 0-7.675-2.201-15.025-6.364-21.258-12.663-18.956-33.569-36.39-62.139-51.817-6.467-3.492-10.497-10.249-10.497-17.598v-9.997c0-27.57-22.43-50-50-50h-173c-27.57 0-50 22.43-50 50v10c0 7.985-4.75 15.205-12.082 18.366-28.875 12.448-49.386 29.406-62.707 51.844-5.639 9.497-17.909 12.625-27.408 6.988-9.498-5.639-12.626-17.91-6.988-27.408 15.545-26.184 38.797-47.177 69.225-62.535 1.455-48.362 41.25-87.255 89.959-87.255h173c49.066 0 89.087 39.465 89.984 88.321 29.151 17.221 51.294 36.992 65.912 58.875 8.573 12.832 13.104 27.866 13.104 43.477zm-332-60.673h152c11.046 0 20-8.954 20-20s-8.954-20-20-20h-152c-11.046 0-20 8.954-20 20s8.954 20 20 20zm322.831 333.423-15.103 26.27c-7.91 13.759-22.684 22.307-38.556 22.307h-30.116c-15.873 0-30.646-8.548-38.557-22.309l-15.102-26.268c-.51-.887-.984-1.789-1.428-2.701-1.551.153-3.112.257-4.689.257h-25.76c-17.216 0-33.226-9.281-41.78-24.223l-13.188-23.035c-8.482-14.816-8.448-33.205.087-47.99l13.119-22.722c8.571-14.848 24.546-24.071 41.692-24.071h31.496c.193-.353.368-.713.571-1.062l15.013-25.781c7.938-13.628 22.665-22.095 38.436-22.095h30.296c15.771 0 30.498 8.467 38.434 22.095l15.013 25.783c5.558 9.545 2.326 21.789-7.22 27.347-9.544 5.56-21.789 2.327-27.347-7.22l-15.012-25.782c-.798-1.371-2.28-2.223-3.867-2.223h-30.296c-1.586 0-3.068.852-3.866 2.223l-15.013 25.783c-.803 1.379-.808 3.097-.012 4.481l15.103 26.268c.796 1.386 2.282 2.245 3.878 2.245h30.116.09c15.771 0 30.498 8.467 38.434 22.095l15.013 25.783c7.985 13.716 8.032 30.785.121 44.545zm-143.55-42.444c2.906 0 5.611-1.565 7.059-4.085.576-1.002 1.24-1.918 1.953-2.779l12.24-21.02c.43-.739.889-1.455 1.358-2.162-.482-.733-.951-1.476-1.391-2.242l-15.102-26.268c-.654-1.138-1.234-2.306-1.779-3.485h-30.165c-2.9 0-5.602 1.56-7.051 4.07l-13.12 22.723c-1.443 2.501-1.449 5.611-.014 8.117l13.187 23.034c1.447 2.526 4.154 4.097 7.066 4.097zm108.86 18.027-15.013-25.783c-.798-1.371-2.28-2.223-3.867-2.223h-.09-30.116-.09c-1.586 0-3.068.852-3.866 2.223l-15.013 25.783c-.803 1.379-.808 3.097-.012 4.481l15.103 26.268c.796 1.386 2.282 2.245 3.878 2.245h30.116c1.597 0 3.083-.86 3.879-2.244l15.103-26.27c.796-1.383.792-3.1-.012-4.48z"/></svg>