<svg xmlns="http://www.w3.org/2000/svg" width="17.811" height="45.787" viewBox="0 0 17.811 45.787"><defs><style>.a{fill:#707070;}</style></defs><g transform="translate(-18.36 -0.084)"><path class="a" d="M30.944,13.21,29.07,10.64,27.2,13.21a6,6,0,0,0,0,7.076l1.874,2.555,1.874-2.563A6,6,0,0,0,30.944,13.21Z" transform="translate(-1.806 -2.481)"/><path class="a" d="M31.372,7.371l1.216,1.69V.685a.673.673,0,0,0-1.339,0V7.264Z" transform="translate(-3.03 0)"/><path class="a" d="M28.216,7.392l.1-.107V.707A.673.673,0,0,0,27,.707V9.121Z" transform="translate(-2.031 -0.022)"/><path class="a" d="M24,17.637V4.105a.665.665,0,0,0-1.331,0V16.995Z" transform="translate(-1.013 -0.789)"/><path class="a" d="M18.966,16.865l.765.375V9.315a.665.665,0,0,0-1.331,0v7.252Z" transform="translate(-0.009 -2.014)"/><path class="a" d="M36.921,16.995V4.105a.665.665,0,1,0-1.331,0V17.637Z" transform="translate(-4.05 -0.789)"/><path class="a" d="M40.631,16.841l.6-.3V9.291a.673.673,0,1,0-1.339,0v7.925Z" transform="translate(-5.06 -1.989)"/><path class="a" d="M31.318,43.455A6.119,6.119,0,0,0,27.952,48.9a.688.688,0,1,1-1.377,0h0a6.119,6.119,0,0,0-3.366-5.446L18.36,41v2.394a6.119,6.119,0,0,0,3.366,5.446l4.59,2.295v3.236a.949.949,0,1,0,1.866,0v-3.2l4.59-2.295a6.119,6.119,0,0,0,3.366-5.446V41Z" transform="translate(0 -9.618)"/><path class="a" d="M30.9,41.265l4.85-2.425a6.119,6.119,0,0,0,3.366-5.446V31l-4.85,2.425A6.119,6.119,0,0,0,30.9,38.863Z" transform="translate(-2.948 -7.268)"/><path class="a" d="M26.575,41.265l-4.85-2.425a6.119,6.119,0,0,1-3.366-5.446V31l4.85,2.425a6.119,6.119,0,0,1,3.366,5.446Z" transform="translate(0 -7.268)"/><path class="a" d="M30.9,31.235l4.85-2.425a6.119,6.119,0,0,0,3.366-5.446V21l-4.85,2.387A6.119,6.119,0,0,0,30.9,28.833Z" transform="translate(-2.948 -4.917)"/><path class="a" d="M26.575,31.235l-4.85-2.425a6.119,6.119,0,0,1-3.366-5.446V21l4.85,2.425a6.119,6.119,0,0,1,3.366,5.446Z" transform="translate(0 -4.917)"/></g></svg>