<?xml version="1.0"?>
<svg xmlns="http://www.w3.org/2000/svg" viewBox="0 0 64 64" width="512" height="512"><g id="outline"><path d="M60.64,20.231c-2.336-1.945-6.982-.791-11.7,2.759a9.015,9.015,0,0,0-5.958-7.472c.009-.176.018-.352.018-.518C43,9.206,38.374,5,32,5S21,9.206,21,15c0,.166.009.342.018.518A9.008,9.008,0,0,0,15,23.947c-4.662-3.47-9.337-4.63-11.642-2.716a4.3,4.3,0,0,0-1.446,3.074c-.274,3.47,2.152,8.588,6.333,13.354s9.312,7.772,13.017,8.009c.011.012.016.027.028.039.243.243,7.182,6.65,7.707,7.507V58a1,1,0,0,0,1,1h4a1,1,0,0,0,1-1V50.5l7.6-5.7a.893.893,0,0,0,.122-.132c3.706-.231,8.851-3.244,13.03-8.009s6.607-9.884,6.333-13.354A4.3,4.3,0,0,0,60.64,20.231ZM45.736,20H43a1,1,0,0,0,0,2h3.7a6.927,6.927,0,0,1,0,4H43a1,1,0,0,0,0,2h2.736a6.966,6.966,0,0,1-7.8,2.683c-.366-3.879-2.316-6.882-4.874-7.54A6.99,6.99,0,0,1,45.736,20ZM32,7c5.3,0,9,3.29,9,8,0,.019,0,.04,0,.059A8.882,8.882,0,0,0,35.041,16.5l.92-3.222a1,1,0,1,0-1.922-.55l-2,7a.8.8,0,0,0-.009.109c-.011.02-.02.041-.03.062-.01-.021-.019-.042-.03-.062a.8.8,0,0,0-.009-.109l-2-7a1,1,0,0,0-1.922.55l.92,3.222A8.882,8.882,0,0,0,23,15.059c0-.019,0-.04,0-.059C23,10.29,26.7,7,32,7ZM17.3,22H21a1,1,0,0,0,0-2H18.264a6.99,6.99,0,0,1,12.678,3.143c-2.558.658-4.508,3.661-4.874,7.54A6.966,6.966,0,0,1,18.264,28H21a1,1,0,0,0,0-2H17.3a6.927,6.927,0,0,1,0-4ZM9.752,36.341c-3.779-4.309-6.073-8.972-5.843-11.879a3.216,3.216,0,0,1,.175-.835L21.43,43.712C18.563,43.571,13.8,40.958,9.752,36.341ZM5.629,22.356c2.047-.368,5.885,1.066,9.869,4.569a9.035,9.035,0,0,0,4.763,5.251c3.711,5.129,4.547,9.448,3.254,10.89ZM29,50.248c-1.041-1.054-5.1-4.833-5.235-4.961a3.382,3.382,0,0,0,1.663-1.445L29,47.414ZM29,40v4.586l-2.921-2.921c.173-2.308-.823-5.378-2.882-8.706.265.024.532.041.8.041a8.929,8.929,0,0,0,2.025-.241A9.944,9.944,0,0,0,29.03,39.85.949.949,0,0,0,29,40Zm4,17H31V41h2ZM32,39c-2.168,0-4-3.206-4-7,0-.193.008-.384.017-.574v-.014C28.165,28.473,29.4,25.991,31,25.24V34a1,1,0,0,0,2,0V25.24c1.6.751,2.835,3.233,2.982,6.172v.014c.009.19.017.381.017.574C36,35.794,34.168,39,32,39Zm2.97.85a9.944,9.944,0,0,0,3.005-7.091A8.929,8.929,0,0,0,40,33c.071,0,.139-.009.209-.011a14.9,14.9,0,0,0-2.3,7.447L35,42.864V40A.949.949,0,0,0,34.97,39.85ZM35,48V45.468L38.44,42.6a3.686,3.686,0,0,0,.921,1.169,3.608,3.608,0,0,0,.691.442Zm7.82-15.459a9.022,9.022,0,0,0,6.025-6.913c3.823-3.257,7.491-4.6,9.485-4.278L40.1,41.408C39.506,39.785,40.2,36.586,42.82,32.541Zm11.428,2.8c-4.515,5.147-9.922,7.815-12.594,7.326L59.905,22.591a3.264,3.264,0,0,1,.186.871C60.321,26.369,58.027,31.032,54.248,35.341Z"/></g></svg>
