<svg id="Layer_1" enable-background="new 0 0 512.004 512.004" height="512" viewBox="0 0 512.004 512.004" width="512" xmlns="http://www.w3.org/2000/svg"><path d="m423.971 70.008c-3.171 0-6.387-.756-9.381-2.35-9.75-5.19-13.447-17.302-8.256-27.052l15.949-29.961c5.19-9.752 17.303-13.446 27.052-8.257 9.75 5.19 13.447 17.302 8.256 27.052l-15.949 29.961c-3.595 6.758-10.516 10.607-17.671 10.607zm73.855 55.224c10.564-3.224 16.515-14.402 13.291-24.967-3.224-10.564-14.4-16.516-24.967-13.291-14.952 4.563-60.456 18.448-85.99 5.083-12.092-6.33-29.895-24.981-46.043-77.891-3.224-10.564-14.402-16.512-24.967-13.291-10.564 3.225-16.515 14.402-13.291 24.967 16.434 53.844 37.94 87.095 65.75 101.652 14.213 7.441 30.256 10.2 46.484 10.2 24.777.001 49.981-6.434 69.733-12.462zm-217.069 335.612c68.604-40.52 122.625-102.087 160.561-182.991 11.195-23.877 7.853-51.413-9.413-77.536-12.427-18.802-31.908-36.765-53.448-49.281-28.945-16.821-53.247-27.832-84.914-30.749-31.288-2.881-61.039 13.341-75.809 41.328-13.102 24.826-21.771 54.348-30.156 82.897-18.854 64.195-36.661 124.831-100.076 146.573-8.777 3.009-21.2 3.582-33.318 3.754-26.571.377-47.889 18.198-53.047 44.347-5.181 26.262 7.829 50.951 32.373 61.437 17.681 7.553 37.692 11.382 59.478 11.382 46.144-.001 116.178-8.877 187.769-51.161zm9.117-300.725c24.452 2.252 43.627 11.056 68.485 25.501 26.767 15.555 58.964 49.185 46.742 75.251-89.352 190.56-248.035 211.133-312.113 211.133-16.354 0-31.079-2.748-43.765-8.167-10.422-4.452-9.403-14.068-8.843-16.91.552-2.797 3.219-11.934 14.371-12.092 15.428-.219 31.645-1.086 45.723-5.912 82.99-28.454 105.565-105.321 125.482-173.14 8.189-27.885 15.924-54.222 27.153-75.499 6.653-12.608 19.479-20.324 33.329-20.324 1.14 0 2.286.052 3.436.159zm20.213 173.002c15.701-18.073 30.561-38.37 42.971-58.694 5.756-9.427 2.781-21.735-6.646-27.492-9.427-5.756-21.736-2.781-27.492 6.646-11.269 18.454-24.765 36.888-39.029 53.306-7.244 8.339-6.357 20.971 1.981 28.215 3.787 3.29 8.458 4.902 13.108 4.902 5.591 0 11.152-2.331 15.107-6.883z"/></svg>