<svg xmlns="http://www.w3.org/2000/svg" width="40" height="42.858" viewBox="0 0 40 42.858"><defs><style>.a{fill:#707070;}</style></defs><path class="a" d="M38.179,14.914a1.429,1.429,0,0,1,1.429,1.429,1.461,1.461,0,1,1-2.921,0,1.429,1.429,0,0,1,1.493-1.429ZM29.814,8.686a1.743,1.743,0,1,1-1.24.51,1.757,1.757,0,0,1,1.24-.51ZM31.371,0a1.964,1.964,0,0,1,2.007,1.943,1.979,1.979,0,0,1-3.957,0A1.95,1.95,0,0,1,31.371,0Zm-.979,20.714a9.929,9.929,0,0,1-7.257-1.621v2.786h7.779a10.407,10.407,0,0,1-.521-1.164Zm1.757-2.793c.386,2.729,1.429,5.121,4.6,5.121,2.464,0,3.764-1.879,5.25-3.5V42.857H2V3.05H19.957c0,2.264,0,2.464,1.879,3.757-3.107,7.586,2.4,13.293,10.314,11.086Zm-11.286-.907a10.086,10.086,0,0,1-1.721-9.429A4.714,4.714,0,0,1,17.85,5.314H4.279V21.85H20.864Zm-16.6,7.143V40.586h16.6V24.157ZM23.136,40.586h16.6V24.636a6.95,6.95,0,0,1-6.743-.514H23.136ZM8.543,18.443a1.136,1.136,0,1,1-2.264,0V7.143H17.714a1.136,1.136,0,1,1,0,2.271H8.543ZM27.414,37.728a1.136,1.136,0,0,1-2.271,0V26.321H36.571a1.136,1.136,0,0,1,0,2.271H27.414Zm-18.871,0a1.136,1.136,0,0,1-2.264,0V26.321H17.714a1.136,1.136,0,0,1,0,2.25H8.543Z" transform="translate(-2 0.001)"/></svg>